<svg version="1.2" xmlns="http://www.w3.org/2000/svg" viewBox="0 0 135 30" width="135" height="30">
	<style>
		.s0 { fill: #ffffff } 
	</style>
	<path id="Dinesh." class="s0" aria-label="Dinesh."  d="m9.7 2.9q6.6 0 9.9 3.1 3.3 2.9 3.3 8.7 0 3.7-1.6 6.5-1.6 2.7-4.7 4.3-3 1.5-7.2 1.5h-2.2q-1.9-0.1-2.8-0.1-3.5 0-5.2 0.1v-0.7q1.1 0 1.6-0.3 0.5-0.2 0.7-0.7 0.2-0.6 0.2-1.9v-16.9q0-1.3-0.2-1.8-0.2-0.6-0.7-0.8-0.5-0.2-1.6-0.3v-0.7q1.4 0.1 4.1 0.1h1 1.4q2.8-0.1 4-0.1zm-0.1 0.6q-1 0-1.6 0.3-0.5 0.2-0.7 0.8-0.2 0.6-0.2 1.9v17q0 1.2 0.2 1.8 0.2 0.6 0.7 0.8 0.6 0.3 1.7 0.3 4.1 0 5.8-2.9 1.7-2.9 1.7-8.7 0-5.8-1.8-8.5-1.7-2.8-5.8-2.8zm25.9 2.8v0.7q-1.2 0.1-1.7 0.3-0.5 0.2-0.7 0.8-0.2 0.5-0.2 1.8v13.5q0 1.3 0.2 1.9 0.2 0.5 0.7 0.7 0.5 0.3 1.7 0.3v0.7q-1.8-0.1-5.1-0.1-3.5 0-5.2 0.1v-0.7q1.1 0 1.6-0.3 0.5-0.2 0.7-0.7 0.2-0.6 0.2-1.9v-13.5q0-1.3-0.2-1.8-0.2-0.6-0.7-0.8-0.5-0.2-1.6-0.3v-0.7q1.6 0.1 5.2 0.1 3.3 0 5.1-0.1zm24 0v0.7q-1.1 0.2-1.7 0.5-0.5 0.4-0.7 1.1-0.2 0.8-0.2 2.3v16.2l-0.9-0.1-0.9 0.1-13.6-16.9v12.2q0 1.5 0.3 2.3 0.3 0.8 1 1.1 0.7 0.3 2.2 0.5v0.7q-1.5-0.1-3.9-0.1-1.8 0-2.9 0.1v-0.7q1.1-0.2 1.6-0.5 0.6-0.3 0.7-1.1 0.2-0.7 0.2-2.3v-12.5q0-1.3-0.2-1.8-0.1-0.6-0.7-0.8-0.5-0.2-1.6-0.3v-0.7q1.1 0.1 2.9 0.1 2.5 0 4.2-0.1l10.8 13.5v-8.9q0-1.5-0.2-2.3-0.3-0.7-1-1.1-0.8-0.3-2.3-0.5v-0.7q1.5 0.1 3.9 0.1 1.9 0 3-0.1zm19.4 16.3q0 1.9 0.2 4.4-2.2-0.1-7.4-0.1-7 0-10.5 0.1v-0.7q1.1 0 1.6-0.3 0.5-0.2 0.7-0.7 0.2-0.6 0.2-1.9v-13.5q0-1.3-0.2-1.8-0.2-0.6-0.7-0.8-0.5-0.2-1.6-0.3v-0.7q3.5 0.1 10.5 0.1 4.8 0 6.8-0.1-0.3 2.3-0.3 4.1 0 1.3 0.1 2.1h-0.8q-0.5-2.9-1.7-4.1-1.3-1.3-3.5-1.3h-1.2q-0.9 0-1.4 0.2-0.4 0.1-0.6 0.6-0.2 0.4-0.2 1.4v7h1.6q1.6 0 2.4-1.1 0.8-1.2 1-2.6h0.8q-0.1 1.1-0.1 2.6v1.4q0 1.5 0.2 4h-0.8q-0.2-1.6-1-2.6-0.9-1.1-2.5-1.1h-1.6v7.1q0 1 0.2 1.5 0.2 0.4 0.6 0.6 0.5 0.1 1.4 0.1h1.4q2.4 0 3.8-1.4 1.4-1.4 1.9-4.7h0.8q-0.1 1-0.1 2.5zm11.9-16.7q1.6 0 2.7 0.3 1.1 0.3 2.1 0.9 0.4 0.2 0.6 0.3 0.3 0.2 0.5 0.2 0.3 0 0.5-0.4 0.2-0.3 0.3-1.1h0.8q-0.2 2-0.2 7.1h-0.8q-0.4-3.1-2-4.8-1.5-1.8-4.1-1.8-1.7 0-2.8 0.7-1 0.8-1 2 0 0.9 0.5 1.7 0.6 0.7 1.5 1.4 0.9 0.6 2.7 1.7l0.8 0.4q2 1.2 3.3 2.1 1.3 0.9 2.1 2.2 0.9 1.3 0.9 2.9 0 2.8-2.3 4.3-2.3 1.5-6.1 1.5-1.6 0-2.8-0.4-1.2-0.3-2.4-1-0.9-0.4-1.2-0.4-0.3 0-0.5 0.4-0.2 0.4-0.3 1.1h-0.8q0.2-1.9 0.2-8.3h0.8q0.2 3.6 1.9 5.7 1.7 2.1 4.9 2.1 1.5 0 2.6-0.8 1.1-0.8 1.1-2.3 0-1.4-1-2.3-1.1-1-3.6-2.5-3.3-1.9-5-3.5-1.7-1.7-1.7-3.9 0-2.7 2.2-4.1 2.2-1.4 5.6-1.4zm35.6 0.4v0.7q-1.2 0.1-1.7 0.3-0.5 0.2-0.7 0.8-0.2 0.5-0.2 1.8v13.5q0 1.3 0.2 1.9 0.2 0.5 0.7 0.7 0.6 0.3 1.7 0.3v0.7q-1.6-0.1-5-0.1-3.4 0-5.3 0.1v-0.7q1.2 0 1.7-0.3 0.5-0.2 0.6-0.7 0.2-0.6 0.2-1.9v-6.6h-8.7v6.6q0 1.3 0.2 1.9 0.2 0.5 0.7 0.7 0.5 0.3 1.7 0.3v0.7q-1.9-0.1-5.4-0.1-3.3 0-4.9 0.1v-0.7q1.1 0 1.6-0.3 0.5-0.2 0.7-0.7 0.2-0.6 0.2-1.9v-13.5q0-1.3-0.2-1.8-0.2-0.6-0.7-0.8-0.5-0.2-1.6-0.3v-0.7q1.6 0.1 4.9 0.1 3.5 0 5.4-0.1v0.7q-1.2 0.1-1.7 0.3-0.5 0.2-0.7 0.8-0.2 0.5-0.2 1.8v6.2h8.7v-6.2q0-1.3-0.2-1.8-0.1-0.6-0.7-0.8-0.5-0.2-1.6-0.3v-0.7q1.9 0.1 5.3 0.1 3.4 0 5-0.1zm5.2 15.9q1.3 0 2.1 0.8 0.8 0.6 0.8 1.9 0 1.2-0.8 1.9-0.8 0.7-2.1 0.7-1.3 0-2.1-0.7-0.8-0.7-0.8-1.9 0-1.3 0.8-1.9 0.8-0.8 2.1-0.8z"/>
</svg>