<?xml version="1.0" encoding="UTF-8"?>
<svg version="1.1" xmlns="http://www.w3.org/2000/svg" width="135" height="30">
<path d="M0 0 C11.06181756 11.44995151 12.57272199 26.37008697 12.41796875 41.61328125 C11.67221945 54.66389397 5.70589178 66.90220006 -3.80078125 75.84765625 C-21.89194278 90.71585455 -42.21635793 90.10098203 -64.46313477 89.80981445 C-67.97662633 89.7683149 -71.49023835 89.75050481 -75.00390625 89.73046875 C-81.8531534 89.68803728 -88.70193246 89.62010232 -95.55078125 89.53515625 C-95.59350225 87.8690372 -95.59141957 86.2013274 -95.55078125 84.53515625 C-93.62032038 82.60469538 -90.29092899 82.63158896 -87.6796875 82.1328125 C-85.35751545 81.66833582 -85.35751545 81.66833582 -83.55078125 79.53515625 C-83.08284807 76.47822223 -83.08284807 76.47822223 -82.93408203 72.875 C-82.89648333 72.20653549 -82.85888462 71.53807098 -82.82014656 70.84934998 C-82.44470256 63.60185688 -82.40550647 56.35346012 -82.41796875 49.09765625 C-82.41729236 47.67854801 -82.41631957 46.25943988 -82.41506958 44.84033203 C-82.41361217 41.89923983 -82.41568568 38.95817841 -82.42041016 36.01708984 C-82.42614875 32.2639475 -82.42279012 28.51087605 -82.41683769 24.75773621 C-82.41321465 21.84083527 -82.41437795 18.92395102 -82.41696548 16.00704956 C-82.41762775 14.62287385 -82.41683111 13.23869658 -82.41448593 11.85452271 C-82.41192587 9.92254671 -82.41652417 7.99056532 -82.42138672 6.05859375 C-82.42218231 4.96466309 -82.42297791 3.87073242 -82.42379761 2.74365234 C-82.56196879 -0.74751929 -82.84658905 -4.03985716 -83.55078125 -7.46484375 C-87.34052402 -10.10885033 -91.0034698 -10.92349715 -95.55078125 -11.46484375 C-95.55078125 -13.11484375 -95.55078125 -14.76484375 -95.55078125 -16.46484375 C-90.27130734 -16.60985669 -84.99176871 -16.75213804 -79.7121582 -16.89208984 C-77.92307641 -16.93987566 -76.13401303 -16.98835644 -74.3449707 -17.03759766 C-19.57992495 -18.54221624 -19.57992495 -18.54221624 0 0 Z M-61.55078125 -8.46484375 C-64.03533336 -5.98029164 -63.79746013 -4.5225133 -63.83294678 -1.13117981 C-63.83046936 -0.38881577 -63.82799194 0.35354828 -63.82543945 1.1184082 C-63.83055038 1.90070801 -63.83566132 2.68300781 -63.84092712 3.48901367 C-63.85486506 6.08389874 -63.85386281 8.67851936 -63.8515625 11.2734375 C-63.855448 13.07464192 -63.85978236 14.87584542 -63.86454773 16.67704773 C-63.8720196 20.45749883 -63.87171232 24.23785657 -63.86645508 28.01831055 C-63.8606684 32.86064198 -63.87756726 37.70258993 -63.90079975 42.54485798 C-63.91554258 46.26722953 -63.91640789 49.98950895 -63.91329002 53.71190453 C-63.91380327 55.4968663 -63.91904156 57.28183324 -63.92910194 59.06676674 C-63.94145558 61.56600322 -63.93468069 64.06449588 -63.9230957 66.5637207 C-63.93073944 67.30001205 -63.93838318 68.03630341 -63.94625854 68.79490662 C-63.90114591 73.20389735 -63.31018777 76.05336209 -60.55078125 79.53515625 C-51.05609765 83.94197142 -39.880924 81.96476584 -30.3515625 78.68359375 C-26.96072992 77.29321052 -24.33226568 75.91928576 -21.55078125 73.53515625 C-21.55078125 72.87515625 -21.55078125 72.21515625 -21.55078125 71.53515625 C-20.89078125 71.53515625 -20.23078125 71.53515625 -19.55078125 71.53515625 C-19.55078125 70.87515625 -19.55078125 70.21515625 -19.55078125 69.53515625 C-18.89078125 69.53515625 -18.23078125 69.53515625 -17.55078125 69.53515625 C-16.3112084 67.33038241 -15.07951402 65.12185655 -13.859375 62.90625 C-12.85509358 61.08655203 -11.83197257 59.27724106 -10.80078125 57.47265625 C-7.96899879 50.81796748 -8.36841851 43.22302906 -8.36328125 36.09765625 C-8.34491211 34.76250977 -8.34491211 34.76250977 -8.32617188 33.40039062 C-8.30874599 25.44838011 -9.28222925 18.26065971 -13.05078125 11.16015625 C-13.47359375 10.34804687 -13.89640625 9.5359375 -14.33203125 8.69921875 C-15.32736207 6.9318685 -16.4256542 5.22284682 -17.55078125 3.53515625 C-18.21078125 3.53515625 -18.87078125 3.53515625 -19.55078125 3.53515625 C-19.55078125 2.87515625 -19.55078125 2.21515625 -19.55078125 1.53515625 C-20.21078125 1.53515625 -20.87078125 1.53515625 -21.55078125 1.53515625 C-21.55078125 0.87515625 -21.55078125 0.21515625 -21.55078125 -0.46484375 C-23.5909908 -1.99680229 -23.5909908 -1.99680229 -26.17578125 -3.46484375 C-27.03429687 -3.98046875 -27.8928125 -4.49609375 -28.77734375 -5.02734375 C-38.29170814 -9.95873262 -51.10408042 -10.9470144 -61.55078125 -8.46484375 Z " fill="#F3F3F3" transform="translate(119.55078125,213.46484375)"/>
<path d="M0 0 C0.33 15.18 0.66 30.36 1 46 C1.99 45.01 2.98 44.02 4 43 C4.66 43 5.32 43 6 43 C6 42.34 6 41.68 6 41 C13.73297589 36.38995668 19.66275429 34.82399671 28.6875 36.8125 C35.65919092 39.31178542 38.85206246 42.36787865 42 49 C45.48445094 60.162762 44.33331562 72.87515517 44.30541992 84.43359375 C44.30281311 87.258425 44.33077907 90.08163516 44.36328125 92.90625 C44.34797112 94.20931091 44.34797112 94.20931091 44.33235168 95.53869629 C44.36940699 97.80100824 44.44495645 99.80646847 45 102 C47.63180144 104.24420141 49.73652383 104.91217461 53 106 C52.67 107.65 52.34 109.3 52 111 C41.11 111 30.22 111 19 111 C18.67 110.01 18.34 109.02 18 108 C19.82420965 105.98376828 20.99629366 105.0014401 23.57617188 103.99902344 C26.13203565 102.29968791 26.13203565 102.29968791 26.46044922 100.07849121 C26.63165105 97.48251516 26.63985749 94.92945987 26.59375 92.328125 C26.59379028 91.37234558 26.59383057 90.41656616 26.59387207 89.43182373 C26.58850816 87.40760739 26.57088837 85.38339219 26.54199219 83.359375 C26.50034284 80.27538615 26.50090605 77.19359609 26.5078125 74.109375 C26.49731242 72.14060994 26.48436993 70.17185609 26.46875 68.203125 C26.46854858 67.28621887 26.46834717 66.36931274 26.46813965 65.42462158 C26.36668874 59.87320233 25.63796709 55.91445879 23 51 C20.61162765 48.75212015 19.10926911 47.99206248 15.81640625 48.015625 C12.12112531 48.37969209 8.58960591 49.05579527 5 50 C5 50.66 5 51.32 5 52 C4.34 52 3.68 52 3 52 C0.78124494 57.37447694 0.70868426 62.17426676 0.734375 67.88671875 C0.73246155 68.82554398 0.7305481 69.7643692 0.72857666 70.73164368 C0.72722038 72.70757314 0.73087779 74.68351167 0.73925781 76.65942383 C0.75000129 79.68786484 0.73932512 82.71571752 0.7265625 85.74414062 C0.72788349 87.66666798 0.73044462 89.58919496 0.734375 91.51171875 C0.73032654 92.41798508 0.72627808 93.3242514 0.72210693 94.25798035 C0.72841125 95.09927994 0.73471558 95.94057953 0.74121094 96.80737305 C0.74280212 97.54650436 0.74439331 98.28563568 0.74603271 99.04716492 C0.89543802 101.32281699 0.89543802 101.32281699 3 104 C6.05429073 105.21284876 6.05429073 105.21284876 9 106 C9 107.65 9 109.3 9 111 C-2.22 111 -13.44 111 -25 111 C-25.33 109.68 -25.66 108.36 -26 107 C-20.25 104 -20.25 104 -18 104 C-17.23259545 98.53411961 -16.84352851 93.23515389 -16.82299805 87.71972656 C-16.81642685 86.93494431 -16.80985565 86.15016205 -16.80308533 85.34159851 C-16.78355647 82.7746061 -16.77174381 80.20767123 -16.76171875 77.640625 C-16.75764322 76.75931664 -16.7535677 75.87800827 -16.74936867 74.96999359 C-16.72860799 70.31642397 -16.71425622 65.66288307 -16.70483398 61.00927734 C-16.69371291 56.20507681 -16.65921986 51.40133221 -16.61966228 46.59729385 C-16.59356208 42.89643477 -16.58514869 39.19568638 -16.58155251 35.49474335 C-16.57667953 33.7228864 -16.56504531 31.95103463 -16.54651451 30.17926788 C-16.52223415 27.70670105 -16.52306571 25.23534418 -16.5300293 22.76269531 C-16.51081421 21.66700478 -16.51081421 21.66700478 -16.49121094 20.54917908 C-16.52657124 17.10938308 -16.75394397 15.31764785 -18.88874817 12.56170654 C-20.99532638 11.00345711 -22.42651075 10.36764132 -25 10 C-25.33 8.68 -25.66 7.36 -26 6 C-17.56901355 1.9761201 -9.35561744 0 0 0 Z " fill="#F2F2F2" transform="translate(413,192)"/>
<path d="M0 0 C0.73046875 1.84765625 0.73046875 1.84765625 1.1875 4.0625 C1.34605469 4.79597656 1.50460938 5.52945313 1.66796875 6.28515625 C1.77753906 6.85105469 1.88710937 7.41695312 2 8 C2.66 8 3.32 8 4 8 C4 7.34 4 6.68 4 6 C12.42546721 -0.37047521 19.4502677 -1.92701856 30 -1 C35.57431307 0.00446226 39.25035325 2.37670637 42.65396118 6.91281128 C46.96615949 13.59937303 47.44939571 20.86304597 47.4765625 28.6171875 C47.49214203 29.59615997 47.50772156 30.57513245 47.52377319 31.58377075 C47.57092476 34.68084009 47.59894784 37.7776877 47.625 40.875 C47.66154211 43.99358057 47.70213767 47.11203677 47.74765015 50.23049927 C47.77479453 52.16359121 47.79618129 54.0967745 47.81118774 56.02999878 C47.82144989 56.9016568 47.83171204 57.77331482 47.84228516 58.67138672 C47.84878082 59.43699921 47.85527649 60.20261169 47.86196899 60.99142456 C47.93002295 63.20747348 47.93002295 63.20747348 49 66 C52.50294871 67.71567661 52.50294871 67.71567661 56 69 C56 70.65 56 72.3 56 74 C45.11 74 34.22 74 23 74 C22.67 72.35 22.34 70.7 22 69 C23.79036458 68.47916667 25.58072917 67.95833333 27.37109375 67.4375 C29.60851773 65.46298675 29.65164236 63.58651626 29.8894043 60.70214844 C30.11352487 55.22628429 30.18592899 49.75362072 30.18530273 44.27392578 C30.18748789 42.13684111 30.2056914 40.00027495 30.22460938 37.86328125 C30.44199211 24.43738722 30.44199211 24.43738722 26 12 C20.78344955 10.21146842 15.47489965 10.50003402 10.3125 12.25 C6.53539694 14.24545067 3.92584373 16.14831255 2 20 C1.90055343 21.43943886 1.86170748 22.88331871 1.85473633 24.32617188 C1.84835648 25.22049927 1.84197662 26.11482666 1.83540344 27.03625488 C1.83429062 28.00397827 1.8331778 28.97170166 1.83203125 29.96875 C1.82870285 30.95999878 1.82537445 31.95124756 1.82194519 32.97253418 C1.81687707 35.07071467 1.81453683 37.16890324 1.81469727 39.26708984 C1.81250898 42.48678768 1.79434705 45.706144 1.77539062 48.92578125 C1.77245712 50.96093632 1.77047204 52.99609303 1.76953125 55.03125 C1.76234573 55.99897339 1.75516022 56.96669678 1.74775696 57.96374512 C1.75083359 58.85807251 1.75391022 59.7523999 1.75708008 60.67382812 C1.75565506 61.46277466 1.75423004 62.25172119 1.75276184 63.0645752 C1.82978799 65.23765915 1.82978799 65.23765915 4 67 C5.98356483 67.71408334 7.98315437 68.38617742 10 69 C9.67 70.65 9.34 72.3 9 74 C-1.89 74 -12.78 74 -24 74 C-24.495 71.525 -24.495 71.525 -25 69 C-21.04 68.01 -21.04 68.01 -17 67 C-17 48.52 -17 30.04 -17 11 C-19.64 10.34 -22.28 9.68 -25 9 C-24.67 7.35 -24.34 5.7 -24 4 C-20.56569589 3.13261635 -17.12715549 2.28339049 -13.6875 1.4375 C-12.71103516 1.19064453 -11.73457031 0.94378906 -10.72851562 0.68945312 C-9.79072266 0.46064453 -8.85292969 0.23183594 -7.88671875 -0.00390625 C-7.02264404 -0.21861572 -6.15856934 -0.4333252 -5.26831055 -0.65454102 C-3 -1 -3 -1 0 0 Z " fill="#F0F0F0" transform="translate(201,229)"/>
<path d="M0 0 C5.01087746 4.00870197 9.02112852 9.61159871 10.8125 15.8125 C11.09023048 20.53391815 11 25.27042036 11 30 C-4.18 30 -19.36 30 -35 30 C-32.34518711 45.79573892 -32.34518711 45.79573892 -23.5 56.375 C-18.01982181 59.93711582 -12.41829822 60.89582159 -6 60 C-3.54411148 59.14257289 -1.27075091 58.13537546 1.0546875 56.97265625 C3 56 3 56 6 55 C6 54.34 6 53.68 6 53 C6.66 53 7.32 53 8 53 C8 52.34 8 51.68 8 51 C9.32 51.33 10.64 51.66 12 52 C11.46968862 56.5076467 9.74778884 59.41954788 7 63 C6.34 63 5.68 63 5 63 C4.7215625 63.86625 4.7215625 63.86625 4.4375 64.75 C1.54888387 69.2713122 -3.36060908 71.0029886 -8.375 72.25 C-19.38435352 74.3177466 -28.49022011 72.68168183 -37.8125 66.3125 C-42.45657397 62.72300418 -45.57967393 59.34317747 -48 54 C-48.30421875 53.35933594 -48.6084375 52.71867187 -48.921875 52.05859375 C-53.66259263 40.27388529 -52.86907495 27.50029131 -48 16 C-45.28708052 9.80969575 -41.90635806 4.56900783 -36 1 C-35.01 1 -34.02 1 -33 1 C-33 0.34 -33 -0.32 -33 -1 C-22.68419948 -6.05263699 -9.95655403 -5.89659996 0 0 Z M-27.6640625 5.27734375 C-33.09880489 10.75224434 -32.94534053 14.78136214 -35 23 C-25.1 23 -15.2 23 -5 23 C-5.53791304 12.30044971 -5.53791304 12.30044971 -11 4 C-16.53494232 1.01786127 -22.60556952 1.39441604 -27.6640625 5.27734375 Z " fill="#EEEEEE" transform="translate(311,232)"/>
<path d="M0 0 C1.54950268 1.54950268 1.21655193 3.09990594 1.31640625 5.25390625 C1.35830078 6.10791016 1.40019531 6.96191406 1.44335938 7.84179688 C1.48267578 8.73962891 1.52199219 9.63746094 1.5625 10.5625 C1.60568359 11.46419922 1.64886719 12.36589844 1.69335938 13.29492188 C1.79978142 15.52978485 1.90179988 17.76476308 2 20 C0.35 20.33 -1.3 20.66 -3 21 C-3.81498562 19.3970947 -4.62689927 17.79262722 -5.4375 16.1875 C-5.88996094 15.29417969 -6.34242188 14.40085938 -6.80859375 13.48046875 C-8 11 -8 11 -9 8 C-10.78228936 6.85790183 -10.78228936 6.85790183 -13 6 C-13.763125 5.62875 -14.52625 5.2575 -15.3125 4.875 C-20.2018658 3.28311346 -23.70183025 3.39899548 -28.375 5.5625 C-31.26312006 7.83763482 -31.26312006 7.83763482 -32.0625 11.4375 C-31.99144222 15.48779354 -31.41002369 16.8094249 -29 20 C-26.33502312 21.68220223 -26.33502312 21.68220223 -23.1953125 22.9375 C-22.05449219 23.44023437 -20.91367187 23.94296875 -19.73828125 24.4609375 C-18.54589844 24.96882813 -17.35351562 25.47671875 -16.125 26 C-13.76883002 27.0101534 -11.41706961 28.03066767 -9.0703125 29.0625 C-7.50434326 29.72958984 -7.50434326 29.72958984 -5.90673828 30.41015625 C-0.5297893 33.3510845 4.06735253 38.09815182 6 44 C6.8270144 51.27772672 6.59689934 57.55555535 3 64 C2.34 64 1.68 64 1 64 C1 64.66 1 65.32 1 66 C0.34 66 -0.32 66 -1 66 C-1 66.66 -1 67.32 -1 68 C-12.85857597 75.41160998 -23.1145571 74.59326863 -36.44921875 71.8515625 C-39.7142437 71.06853121 -42.83600659 70.11784713 -46 69 C-46.83211276 63.96145894 -47.1078534 59.1874338 -47.0625 54.0625 C-47.05798828 53.37865234 -47.05347656 52.69480469 -47.04882812 51.99023438 C-47.0371956 50.32678396 -47.01926694 48.6633795 -47 47 C-45.35 47 -43.7 47 -42 47 C-41.64808594 47.79664063 -41.29617188 48.59328125 -40.93359375 49.4140625 C-37.92287461 55.87571037 -35.20733181 61.19744565 -29 65 C-23.35219043 66.88260319 -17.92134749 66.80898842 -12.4375 64.5 C-9.58402457 61.57335853 -9.08735495 59.94587279 -8.90234375 55.95703125 C-9.04371537 53.12394406 -9.46172217 51.40773921 -11 49 C-14.71656234 45.78567581 -18.5873424 44.36475461 -23.1875 42.6875 C-31.72777136 39.5117698 -39.64882618 35.59065185 -45 28 C-47.27108392 21.5111888 -47.72602142 15.54310301 -45.24609375 9.015625 C-42.08907023 2.83367099 -36.79625758 -0.24754947 -30.375 -2.4609375 C-20.35948082 -4.73419679 -9.76978721 -2.52081408 0 0 Z " fill="#EFEFEF" transform="translate(378,231)"/>
<path d="M0 0 C0.01030746 0.76563766 0.02061493 1.53127533 0.03123474 2.32011414 C0.12931307 9.5442579 0.23184195 16.76831843 0.33933926 23.99232769 C0.39444516 27.70603752 0.44784496 31.41975539 0.49731445 35.13354492 C0.54514053 38.71920699 0.59748903 42.3047774 0.65294075 45.89032936 C0.67328191 47.25659711 0.69200819 48.62288991 0.70907402 49.9892025 C0.73330109 51.90651653 0.76386213 53.82374734 0.79467773 55.7409668 C0.81799416 57.37644722 0.81799416 57.37644722 0.84178162 59.04496765 C0.98914018 61.79717202 1.38059213 64.3187576 2 67 C4.64 67.66 7.28 68.32 10 69 C9.67 70.65 9.34 72.3 9 74 C-1.89 74 -12.78 74 -24 74 C-24.495 71.525 -24.495 71.525 -25 69 C-23.2421875 68.47916667 -21.484375 67.95833333 -19.7265625 67.4375 C-16.87281735 65.06153119 -16.6170814 61.51633054 -16 58 C-15.73043032 54.90144348 -15.69572772 51.82396266 -15.69921875 48.71484375 C-15.69493362 47.85492325 -15.6906485 46.99500275 -15.68623352 46.10902405 C-15.68052567 44.30307898 -15.67996359 42.49711093 -15.68432617 40.69116211 C-15.6874954 37.94149455 -15.66395101 35.19289507 -15.63867188 32.44335938 C-15.6363993 30.67968884 -15.63569519 28.91601545 -15.63671875 27.15234375 C-15.627509 26.33861801 -15.61829926 25.52489227 -15.60881042 24.68650818 C-15.65127359 19.40669223 -16.41852485 15.64680563 -19 11 C-22.05181069 9.48026848 -22.05181069 9.48026848 -25 9 C-25 7.68 -25 6.36 -25 5 C-22.29293656 4.18305769 -19.58448604 3.37133506 -16.875 2.5625 C-15.73417969 2.21735352 -15.73417969 2.21735352 -14.5703125 1.86523438 C-3.09522804 -1.54761402 -3.09522804 -1.54761402 0 0 Z " fill="#F5F5F5" transform="translate(164,229)"/>
<path d="M0 0 C0.680625 -0.00515625 1.36125 -0.0103125 2.0625 -0.015625 C4 0.25 4 0.25 7 2.25 C7 2.91 7 3.57 7 4.25 C7.66 4.25 8.32 4.25 9 4.25 C11.23244396 8.58356768 11.25804803 11.55328735 10 16.25 C7.46190087 19.78795636 5.29199062 21.49415028 1.0625 22.3125 C-2.26467911 22.53892429 -3.2048563 22.14757185 -6.375 20.5625 C-9.84486535 17.50571386 -10.78254448 15.91715896 -11.375 11.375 C-10.89861498 7.40512486 -9.46959574 5.35463464 -7 2.25 C-4.00261059 0.25174039 -3.36652492 -0.02550398 0 0 Z " fill="#ECECEC" transform="translate(480,282.75)"/>
<path d="M0 0 C2.23130089 3.58360447 3 5.91534812 3 10.125 C1.54952366 14.29511948 -1.04575375 17.02287687 -5 19 C-9.11877201 19.3885634 -11.28899282 19.45820463 -14.8125 17.1875 C-17.73686428 14.26313572 -18.94563171 12.74756396 -19.25 8.5625 C-19.02387233 5.34018069 -18.7067644 3.66681938 -17 1 C-16.34 1 -15.68 1 -15 1 C-15 0.34 -15 -0.32 -15 -1 C-9.35331992 -3.2351442 -5.20578 -3.53291137 0 0 Z " fill="#ECECEC" transform="translate(164,198)"/>
<path d="M0 0 C2.64 0.66 5.28 1.32 8 2 C7.67 3.65 7.34 5.3 7 7 C-2.24 7 -11.48 7 -21 7 C-21 6.67 -21 6.34 -21 6 C-13.74 6 -6.48 6 1 6 C1 5.34 1 4.68 1 4 C1.66 4 2.32 4 3 4 C3 3.34 3 2.68 3 2 C2.01 1.67 1.02 1.34 0 1 C0 0.67 0 0.34 0 0 Z " fill="#A3A3A2" transform="translate(166,296)"/>
<path d="M0 0 C0.66 0 1.32 0 2 0 C2 1.65 2 3.3 2 5 C-0.64 5 -3.28 5 -6 5 C-3 3 -3 3 -1 3 C-0.67 2.01 -0.34 1.02 0 0 Z " fill="#D5D5D5" transform="translate(255,298)"/>
<path d="M0 0 C1.32 0.33 2.64 0.66 4 1 C3.67 1.66 3.34 2.32 3 3 C4.32 3.66 5.64 4.32 7 5 C5.02 5 3.04 5 1 5 C0.67 3.35 0.34 1.7 0 0 Z " fill="#C3C3BF" transform="translate(176,298)"/>
<path d="" fill="#000000" transform="translate(0,0)"/>
<path d="" fill="#000000" transform="translate(0,0)"/>
<path d="" fill="#000000" transform="translate(0,0)"/>
<path d="" fill="#000000" transform="translate(0,0)"/>
<path d="" fill="#000000" transform="translate(0,0)"/>
<path d="" fill="#000000" transform="translate(0,0)"/>
<path d="" fill="#000000" transform="translate(0,0)"/>
<path d="" fill="#000000" transform="translate(0,0)"/>
<path d="" fill="#000000" transform="translate(0,0)"/>
<path d="" fill="#000000" transform="translate(0,0)"/>
<path d="" fill="#000000" transform="translate(0,0)"/>
<path d="" fill="#000000" transform="translate(0,0)"/>
<path d="" fill="#000000" transform="translate(0,0)"/>
<path d="" fill="#000000" transform="translate(0,0)"/>
<path d="" fill="#000000" transform="translate(0,0)"/>
<path d="" fill="#000000" transform="translate(0,0)"/>
<path d="" fill="#000000" transform="translate(0,0)"/>
<path d="" fill="#000000" transform="translate(0,0)"/>
<path d="" fill="#000000" transform="translate(0,0)"/>
<path d="" fill="#000000" transform="translate(0,0)"/>
<path d="" fill="#000000" transform="translate(0,0)"/>
<path d="" fill="#000000" transform="translate(0,0)"/>
<path d="" fill="#000000" transform="translate(0,0)"/>
<path d="" fill="#000000" transform="translate(0,0)"/>
<path d="" fill="#000000" transform="translate(0,0)"/>
<path d="" fill="#000000" transform="translate(0,0)"/>
<path d="" fill="#000000" transform="translate(0,0)"/>
<path d="" fill="#000000" transform="translate(0,0)"/>
<path d="" fill="#000000" transform="translate(0,0)"/>
<path d="" fill="#000000" transform="translate(0,0)"/>
<path d="" fill="#000000" transform="translate(0,0)"/>
<path d="" fill="#000000" transform="translate(0,0)"/>
<path d="" fill="#000000" transform="translate(0,0)"/>
<path d="" fill="#000000" transform="translate(0,0)"/>
<path d="" fill="#000000" transform="translate(0,0)"/>
<path d="" fill="#000000" transform="translate(0,0)"/>
<path d="" fill="#000000" transform="translate(0,0)"/>
<path d="" fill="#000000" transform="translate(0,0)"/>
<path d="" fill="#000000" transform="translate(0,0)"/>
<path d="" fill="#000000" transform="translate(0,0)"/>
<path d="" fill="#000000" transform="translate(0,0)"/>
<path d="" fill="#000000" transform="translate(0,0)"/>
<path d="" fill="#000000" transform="translate(0,0)"/>
<path d="" fill="#000000" transform="translate(0,0)"/>
<path d="" fill="#000000" transform="translate(0,0)"/>
<path d="" fill="#000000" transform="translate(0,0)"/>
<path d="" fill="#000000" transform="translate(0,0)"/>
<path d="" fill="#000000" transform="translate(0,0)"/>
<path d="" fill="#000000" transform="translate(0,0)"/>
<path d="" fill="#000000" transform="translate(0,0)"/>
<path d="" fill="#000000" transform="translate(0,0)"/>
<path d="" fill="#000000" transform="translate(0,0)"/>
<path d="" fill="#000000" transform="translate(0,0)"/>
<path d="" fill="#000000" transform="translate(0,0)"/>
<path d="" fill="#000000" transform="translate(0,0)"/>
<path d="" fill="#000000" transform="translate(0,0)"/>
<path d="" fill="#000000" transform="translate(0,0)"/>
<path d="" fill="#000000" transform="translate(0,0)"/>
<path d="" fill="#000000" transform="translate(0,0)"/>
<path d="" fill="#000000" transform="translate(0,0)"/>
<path d="" fill="#000000" transform="translate(0,0)"/>
<path d="" fill="#000000" transform="translate(0,0)"/>
<path d="" fill="#000000" transform="translate(0,0)"/>
<path d="" fill="#000000" transform="translate(0,0)"/>
<path d="" fill="#000000" transform="translate(0,0)"/>
<path d="" fill="#000000" transform="translate(0,0)"/>
<path d="" fill="#000000" transform="translate(0,0)"/>
<path d="" fill="#000000" transform="translate(0,0)"/>
<path d="" fill="#000000" transform="translate(0,0)"/>
<path d="" fill="#000000" transform="translate(0,0)"/>
<path d="" fill="#000000" transform="translate(0,0)"/>
</svg>
